<mxfile host="app.diagrams.net" modified="2022-06-24T09:17:44.259Z" agent="5.0 (Windows NT 10.0; Win64; x64) AppleWebKit/537.36 (KHTML, like Gecko) Chrome/103.0.0.0 Safari/537.36" etag="IbYINzbO_jKsnIXpJHEy" version="20.0.3" type="github">
  <diagram id="BA0isQy_YICqdeQ_zjqH" name="Page-1">
    <mxGraphModel dx="1673" dy="896" grid="1" gridSize="10" guides="1" tooltips="1" connect="1" arrows="1" fold="1" page="1" pageScale="1" pageWidth="827" pageHeight="1169" math="0" shadow="0">
      <root>
        <mxCell id="0" />
        <mxCell id="1" parent="0" />
        <mxCell id="KMSyTO2Tw8k9AeE2KC6p-31" value="GS" style="ellipse;whiteSpace=wrap;html=1;rounded=1;shadow=0;comic=0;labelBackgroundColor=none;strokeColor=#6881B3;strokeWidth=2;fillColor=#CCFFCC;fontFamily=Helvetica;fontSize=22;fontColor=#000000;verticalAlign=middle;gradientColor=none;gradientDirection=north;spacingBottom=36;" vertex="1" parent="1">
          <mxGeometry x="1540" y="470" width="550" height="248" as="geometry" />
        </mxCell>
        <mxCell id="KMSyTO2Tw8k9AeE2KC6p-32" value="客户APP" style="ellipse;whiteSpace=wrap;html=1;rounded=1;shadow=0;comic=0;labelBackgroundColor=none;strokeColor=#6881B3;strokeWidth=2;fillColor=#CCFFCC;fontFamily=Helvetica;fontSize=22;fontColor=#000000;verticalAlign=middle;gradientColor=none;gradientDirection=north;spacingBottom=17;" vertex="1" parent="1">
          <mxGeometry x="720" y="490" width="490" height="242" as="geometry" />
        </mxCell>
        <mxCell id="KMSyTO2Tw8k9AeE2KC6p-33" value="PAAS" style="ellipse;whiteSpace=wrap;html=1;rounded=1;shadow=0;comic=0;labelBackgroundColor=none;strokeColor=#6881B3;strokeWidth=2;fillColor=#CCFFCC;fontFamily=Helvetica;fontSize=22;fontColor=#000000;verticalAlign=middle;gradientColor=none;gradientDirection=north;" vertex="1" parent="1">
          <mxGeometry x="1110" y="70" width="606" height="271" as="geometry" />
        </mxCell>
        <mxCell id="KMSyTO2Tw8k9AeE2KC6p-34" value="&lt;font style=&quot;font-size: 18px&quot;&gt;GSM&lt;/font&gt;" style="rounded=0;whiteSpace=wrap;html=1;" vertex="1" parent="1">
          <mxGeometry x="1343" y="260" width="120" height="60" as="geometry" />
        </mxCell>
        <mxCell id="KMSyTO2Tw8k9AeE2KC6p-35" value="&lt;font style=&quot;font-size: 18px&quot;&gt;agent&lt;/font&gt;" style="rounded=0;whiteSpace=wrap;html=1;" vertex="1" parent="1">
          <mxGeometry x="1650" y="500" width="130" height="70" as="geometry" />
        </mxCell>
        <mxCell id="KMSyTO2Tw8k9AeE2KC6p-36" value="&lt;font style=&quot;font-size: 18px&quot;&gt;UDS：存档&lt;/font&gt;" style="rounded=0;whiteSpace=wrap;html=1;" vertex="1" parent="1">
          <mxGeometry x="1940" y="590" width="120" height="60" as="geometry" />
        </mxCell>
        <mxCell id="KMSyTO2Tw8k9AeE2KC6p-37" value="&lt;font style=&quot;font-size: 18px&quot;&gt;Log：日志&lt;/font&gt;" style="rounded=0;whiteSpace=wrap;html=1;" vertex="1" parent="1">
          <mxGeometry x="1790" y="650" width="120" height="60" as="geometry" />
        </mxCell>
        <mxCell id="KMSyTO2Tw8k9AeE2KC6p-38" value="&lt;font style=&quot;font-size: 18px&quot;&gt;鉴权服务&lt;/font&gt;" style="rounded=0;whiteSpace=wrap;html=1;" vertex="1" parent="1">
          <mxGeometry x="1510" y="150" width="120" height="60" as="geometry" />
        </mxCell>
        <mxCell id="KMSyTO2Tw8k9AeE2KC6p-39" value="&lt;font style=&quot;font-size: 18px&quot;&gt;蔚领SDK&lt;/font&gt;" style="ellipse;whiteSpace=wrap;html=1;" vertex="1" parent="1">
          <mxGeometry x="1010" y="580" width="170" height="90" as="geometry" />
        </mxCell>
        <mxCell id="KMSyTO2Tw8k9AeE2KC6p-40" value="&lt;font style=&quot;font-size: 18px&quot;&gt;测速服务&lt;/font&gt;" style="rounded=0;whiteSpace=wrap;html=1;" vertex="1" parent="1">
          <mxGeometry x="1170" y="230" width="120" height="60" as="geometry" />
        </mxCell>
        <mxCell id="KMSyTO2Tw8k9AeE2KC6p-41" value="&lt;font style=&quot;font-size: 14px&quot;&gt;上报心跳&lt;/font&gt;" style="endArrow=classic;startArrow=classic;html=1;entryX=0.5;entryY=1;entryDx=0;entryDy=0;" edge="1" parent="1" source="KMSyTO2Tw8k9AeE2KC6p-35" target="KMSyTO2Tw8k9AeE2KC6p-34">
          <mxGeometry width="50" height="50" relative="1" as="geometry">
            <mxPoint x="1460" y="460" as="sourcePoint" />
            <mxPoint x="1510" y="410" as="targetPoint" />
            <Array as="points">
              <mxPoint x="1660" y="480" />
            </Array>
          </mxGeometry>
        </mxCell>
        <mxCell id="KMSyTO2Tw8k9AeE2KC6p-42" value="" style="endArrow=classic;startArrow=classic;html=1;entryX=0.5;entryY=1;entryDx=0;entryDy=0;" edge="1" parent="1" target="KMSyTO2Tw8k9AeE2KC6p-40">
          <mxGeometry width="50" height="50" relative="1" as="geometry">
            <mxPoint x="1120" y="580" as="sourcePoint" />
            <mxPoint x="1170" y="530" as="targetPoint" />
          </mxGeometry>
        </mxCell>
        <mxCell id="KMSyTO2Tw8k9AeE2KC6p-43" value="&lt;font style=&quot;font-size: 14px&quot;&gt;测速列表&lt;/font&gt;" style="edgeLabel;html=1;align=center;verticalAlign=middle;resizable=0;points=[];" vertex="1" connectable="0" parent="KMSyTO2Tw8k9AeE2KC6p-42">
          <mxGeometry x="0.1419" y="-2" relative="1" as="geometry">
            <mxPoint as="offset" />
          </mxGeometry>
        </mxCell>
        <mxCell id="KMSyTO2Tw8k9AeE2KC6p-44" value="" style="endArrow=classic;startArrow=classic;html=1;entryX=0.5;entryY=1;entryDx=0;entryDy=0;" edge="1" parent="1" target="KMSyTO2Tw8k9AeE2KC6p-34">
          <mxGeometry width="50" height="50" relative="1" as="geometry">
            <mxPoint x="1160" y="590" as="sourcePoint" />
            <mxPoint x="1377.8620689655177" y="330" as="targetPoint" />
          </mxGeometry>
        </mxCell>
        <mxCell id="KMSyTO2Tw8k9AeE2KC6p-45" value="&lt;font style=&quot;font-size: 14px&quot;&gt;获取节点、GS内/外网+端口&lt;/font&gt;" style="edgeLabel;html=1;align=center;verticalAlign=middle;resizable=0;points=[];" vertex="1" connectable="0" parent="KMSyTO2Tw8k9AeE2KC6p-44">
          <mxGeometry x="0.1946" y="-5" relative="1" as="geometry">
            <mxPoint as="offset" />
          </mxGeometry>
        </mxCell>
        <mxCell id="KMSyTO2Tw8k9AeE2KC6p-46" value="" style="endArrow=classic;startArrow=classic;html=1;exitX=1;exitY=0.5;exitDx=0;exitDy=0;entryX=0;entryY=0.75;entryDx=0;entryDy=0;" edge="1" parent="1" source="KMSyTO2Tw8k9AeE2KC6p-39" target="KMSyTO2Tw8k9AeE2KC6p-50">
          <mxGeometry width="50" height="50" relative="1" as="geometry">
            <mxPoint x="1170" y="660" as="sourcePoint" />
            <mxPoint x="1220" y="610" as="targetPoint" />
          </mxGeometry>
        </mxCell>
        <mxCell id="KMSyTO2Tw8k9AeE2KC6p-47" value="&lt;font style=&quot;font-size: 14px&quot;&gt;串流服务&lt;/font&gt;" style="edgeLabel;html=1;align=center;verticalAlign=middle;resizable=0;points=[];" vertex="1" connectable="0" parent="KMSyTO2Tw8k9AeE2KC6p-46">
          <mxGeometry x="0.1373" y="-1" relative="1" as="geometry">
            <mxPoint x="1" as="offset" />
          </mxGeometry>
        </mxCell>
        <mxCell id="KMSyTO2Tw8k9AeE2KC6p-48" value="" style="endArrow=classic;startArrow=classic;html=1;exitX=0.947;exitY=0.744;exitDx=0;exitDy=0;exitPerimeter=0;" edge="1" parent="1" source="KMSyTO2Tw8k9AeE2KC6p-39" target="KMSyTO2Tw8k9AeE2KC6p-51">
          <mxGeometry width="50" height="50" relative="1" as="geometry">
            <mxPoint x="1200" y="700" as="sourcePoint" />
            <mxPoint x="1250" y="650" as="targetPoint" />
          </mxGeometry>
        </mxCell>
        <mxCell id="KMSyTO2Tw8k9AeE2KC6p-49" value="&lt;font style=&quot;font-size: 14px&quot;&gt;数据管道&lt;/font&gt;" style="edgeLabel;html=1;align=center;verticalAlign=middle;resizable=0;points=[];" vertex="1" connectable="0" parent="KMSyTO2Tw8k9AeE2KC6p-48">
          <mxGeometry x="-0.1853" y="-2" relative="1" as="geometry">
            <mxPoint as="offset" />
          </mxGeometry>
        </mxCell>
        <mxCell id="KMSyTO2Tw8k9AeE2KC6p-50" value="&lt;font style=&quot;font-size: 18px&quot;&gt;GS&lt;/font&gt;" style="rounded=0;whiteSpace=wrap;html=1;" vertex="1" parent="1">
          <mxGeometry x="1560" y="564" width="120" height="60" as="geometry" />
        </mxCell>
        <mxCell id="KMSyTO2Tw8k9AeE2KC6p-51" value="&lt;font style=&quot;font-size: 18px&quot;&gt;Pipe：管道&lt;/font&gt;" style="rounded=0;whiteSpace=wrap;html=1;" vertex="1" parent="1">
          <mxGeometry x="1630" y="630" width="120" height="60" as="geometry" />
        </mxCell>
        <mxCell id="KMSyTO2Tw8k9AeE2KC6p-52" value="&lt;font style=&quot;font-size: 18px&quot;&gt;计费服务&lt;/font&gt;" style="rounded=0;whiteSpace=wrap;html=1;" vertex="1" parent="1">
          <mxGeometry x="1480" y="250" width="120" height="60" as="geometry" />
        </mxCell>
        <mxCell id="KMSyTO2Tw8k9AeE2KC6p-53" value="&lt;span style=&quot;font-size: 14px&quot;&gt;上报心跳&lt;/span&gt;" style="endArrow=classic;startArrow=classic;html=1;" edge="1" parent="1" source="KMSyTO2Tw8k9AeE2KC6p-35" target="KMSyTO2Tw8k9AeE2KC6p-52">
          <mxGeometry width="50" height="50" relative="1" as="geometry">
            <mxPoint x="1520" y="400" as="sourcePoint" />
            <mxPoint x="1570" y="350" as="targetPoint" />
          </mxGeometry>
        </mxCell>
      </root>
    </mxGraphModel>
  </diagram>
</mxfile>
